<svg width="63" height="51" viewBox="0 0 63 51" fill="none" xmlns="http://www.w3.org/2000/svg">
<path d="M46.6446 48.2063C46.0844 49.0165 45.1621 49.5 44.1771 49.5H-2.38419e-07C-1.65685 49.5 -3 48.1569 -3 46.5V5C-3 3.34315 -1.65685 2 0 2H44.1583C45.1537 2 46.0843 2.49376 46.6424 3.31803L60.8491 24.3002C61.5429 25.3249 61.5363 26.6706 60.8325 27.6884L46.6446 48.2063Z" fill="#7C0200"/>
<path d="M60.8325 27.6884L59.5987 26.8353L60.8325 27.6884ZM46.6424 3.31803L47.8845 2.47704L46.6424 3.31803ZM46.6446 48.2063L45.4108 47.3531L46.6446 48.2063ZM44.1771 49.5V48H-2.38419e-07V49.5V51H44.1771V49.5ZM-3 46.5H-1.5V5H-3H-4.5V46.5H-3ZM0 2V3.5H44.1583V2V0.5H0V2ZM46.6424 3.31803L45.4003 4.15901L59.607 25.1412L60.8491 24.3002L62.0912 23.4592L47.8845 2.47704L46.6424 3.31803ZM60.8325 27.6884L59.5987 26.8353L45.4108 47.3531L46.6446 48.2063L47.8784 49.0594L62.0662 28.5416L60.8325 27.6884ZM60.8491 24.3002L59.607 25.1412C59.9539 25.6535 59.9506 26.3264 59.5987 26.8353L60.8325 27.6884L62.0662 28.5416C63.122 27.0147 63.1319 24.9963 62.0912 23.4592L60.8491 24.3002ZM44.1583 2V3.5C44.656 3.5 45.1213 3.74688 45.4003 4.15901L46.6424 3.31803L47.8845 2.47704C47.0473 1.24064 45.6514 0.5 44.1583 0.5V2ZM-3 5H-1.5C-1.5 4.17157 -0.828426 3.5 0 3.5V2V0.5C-2.48528 0.5 -4.5 2.51472 -4.5 5H-3ZM-2.38419e-07 49.5V48C-0.828427 48 -1.5 47.3284 -1.5 46.5H-3H-4.5C-4.5 48.9853 -2.48528 51 -2.38419e-07 51V49.5ZM44.1771 49.5V51C45.6546 51 47.038 50.2747 47.8784 49.0594L46.6446 48.2063L45.4108 47.3531C45.1307 47.7582 44.6696 48 44.1771 48V49.5Z" fill="#AA0300" fill-opacity="0.3"/>
</svg>
