<svg width="248" height="58" viewBox="0 0 248 58" fill="none" xmlns="http://www.w3.org/2000/svg">
<mask id="path-1-outside-1_22_47" maskUnits="userSpaceOnUse" x="15.999" y="0" width="216" height="58" fill="black">
<rect fill="white" x="15.999" width="216" height="58"/>
<path d="M214.475 3C215.667 3.00028 216.608 4.05579 216.865 5.2207C217.542 8.28894 220.234 12.5496 227.544 14.998C228.395 15.2833 229.001 16.0653 229.001 16.9629V41.0371C229.001 41.9347 228.395 42.7167 227.544 43.002C220.234 45.4504 217.542 49.7111 216.865 52.7793C216.608 53.9442 215.667 54.9997 214.475 55H33.5254C32.3326 54.9997 31.3917 53.9442 31.1348 52.7793C30.4581 49.7111 27.7659 45.4504 20.4561 43.002C19.605 42.7167 18.999 41.9347 18.999 41.0371V16.9629C18.999 16.0653 19.605 15.2833 20.4561 14.998C27.7659 12.5496 30.4581 8.28894 31.1348 5.2207C31.3917 4.05579 32.3326 3.00028 33.5254 3H214.475Z"/>
</mask>
<path d="M214.475 3C215.667 3.00028 216.608 4.05579 216.865 5.2207C217.542 8.28894 220.234 12.5496 227.544 14.998C228.395 15.2833 229.001 16.0653 229.001 16.9629V41.0371C229.001 41.9347 228.395 42.7167 227.544 43.002C220.234 45.4504 217.542 49.7111 216.865 52.7793C216.608 53.9442 215.667 54.9997 214.475 55H33.5254C32.3326 54.9997 31.3917 53.9442 31.1348 52.7793C30.4581 49.7111 27.7659 45.4504 20.4561 43.002C19.605 42.7167 18.999 41.9347 18.999 41.0371V16.9629C18.999 16.0653 19.605 15.2833 20.4561 14.998C27.7659 12.5496 30.4581 8.28894 31.1348 5.2207C31.3917 4.05579 32.3326 3.00028 33.5254 3H214.475Z" fill="#FFC300"/>
<path d="M214.475 3L214.475 0.5H214.475V3ZM216.865 5.2207L214.424 5.75911L214.424 5.75914L216.865 5.2207ZM227.544 14.998L228.338 12.6277L228.338 12.6275L227.544 14.998ZM227.544 43.002L228.338 45.3725L228.338 45.3723L227.544 43.002ZM216.865 52.7793L214.424 52.2409L214.424 52.2409L216.865 52.7793ZM214.475 55L214.475 57.5L214.475 57.5L214.475 55ZM33.5254 55L33.5248 57.5H33.5254V55ZM31.1348 52.7793L33.5761 52.2409L33.5761 52.2409L31.1348 52.7793ZM20.4561 43.002L19.6615 45.3723L19.662 45.3725L20.4561 43.002ZM20.4561 14.998L19.662 12.6275L19.6615 12.6277L20.4561 14.998ZM31.1348 5.2207L33.5761 5.75914L33.5761 5.75911L31.1348 5.2207ZM33.5254 3L33.5254 0.5L33.5248 0.5L33.5254 3ZM214.475 3L214.474 5.5C214.396 5.49998 214.33 5.48139 214.288 5.4624C214.25 5.44549 214.247 5.43557 214.268 5.45611C214.289 5.47692 214.322 5.51682 214.355 5.57713C214.388 5.6372 214.411 5.70097 214.424 5.75911L216.865 5.2207L219.307 4.68229C218.895 2.81491 217.242 0.500647 214.475 0.5L214.475 3ZM216.865 5.2207L214.424 5.75914C215.313 9.78978 218.714 14.677 226.75 17.3686L227.544 14.998L228.338 12.6275C221.754 10.4221 219.771 6.7881 219.307 4.68226L216.865 5.2207ZM227.544 14.998L226.749 17.3684C226.693 17.3496 226.638 17.3127 226.593 17.2522C226.544 17.188 226.501 17.0866 226.501 16.9629H229.001H231.501C231.501 14.9078 230.127 13.2273 228.338 12.6277L227.544 14.998ZM229.001 16.9629H226.501V41.0371H229.001H231.501V16.9629H229.001ZM229.001 41.0371H226.501C226.501 40.9134 226.544 40.812 226.593 40.7478C226.638 40.6873 226.693 40.6504 226.749 40.6316L227.544 43.002L228.338 45.3723C230.127 44.7727 231.501 43.0922 231.501 41.0371H229.001ZM227.544 43.002L226.75 40.6314C218.714 43.323 215.313 48.2102 214.424 52.2409L216.865 52.7793L219.307 53.3177C219.771 51.2119 221.754 47.5779 228.338 45.3725L227.544 43.002ZM216.865 52.7793L214.424 52.2409C214.411 52.299 214.388 52.3628 214.355 52.4229C214.322 52.4832 214.289 52.5231 214.268 52.5439C214.247 52.5644 214.25 52.5545 214.288 52.5376C214.33 52.5186 214.396 52.5 214.474 52.5L214.475 55L214.475 57.5C217.242 57.4994 218.895 55.1851 219.307 53.3177L216.865 52.7793ZM214.475 55V52.5H33.5254V55V57.5H214.475V55ZM33.5254 55L33.526 52.5C33.6039 52.5 33.6701 52.5186 33.7122 52.5376C33.7497 52.5545 33.7529 52.5644 33.732 52.5439C33.7109 52.5231 33.6778 52.4832 33.6449 52.4229C33.6123 52.3628 33.5889 52.299 33.5761 52.2409L31.1348 52.7793L28.6934 53.3177C29.1053 55.1851 30.7585 57.4994 33.5248 57.5L33.5254 55ZM31.1348 52.7793L33.5761 52.2409C32.6871 48.2102 29.2858 43.323 21.2501 40.6314L20.4561 43.002L19.662 45.3725C26.2461 47.5779 28.229 51.2119 28.6934 53.3177L31.1348 52.7793ZM20.4561 43.002L21.2506 40.6316C21.3067 40.6504 21.362 40.6873 21.4074 40.7478C21.4556 40.812 21.499 40.9134 21.499 41.0371H18.999H16.499C16.499 43.0922 17.8726 44.7727 19.6615 45.3723L20.4561 43.002ZM18.999 41.0371H21.499V16.9629H18.999H16.499V41.0371H18.999ZM18.999 16.9629H21.499C21.499 17.0866 21.4556 17.188 21.4074 17.2522C21.362 17.3127 21.3067 17.3496 21.2506 17.3684L20.4561 14.998L19.6615 12.6277C17.8726 13.2273 16.499 14.9078 16.499 16.9629H18.999ZM20.4561 14.998L21.2501 17.3686C29.2858 14.677 32.6871 9.78978 33.5761 5.75914L31.1348 5.2207L28.6934 4.68226C28.229 6.7881 26.2461 10.4221 19.662 12.6275L20.4561 14.998ZM31.1348 5.2207L33.5761 5.75911C33.5889 5.70097 33.6123 5.6372 33.6449 5.57713C33.6778 5.51682 33.7109 5.47692 33.732 5.45611C33.7529 5.43557 33.7497 5.44549 33.7122 5.4624C33.6701 5.48139 33.6039 5.49998 33.526 5.5L33.5254 3L33.5248 0.5C30.7585 0.500647 29.1053 2.81491 28.6934 4.68229L31.1348 5.2207ZM33.5254 3V5.5H214.475V3V0.5H33.5254V3Z" fill="#8D0101" mask="url(#path-1-outside-1_22_47)"/>
<mask id="mask0_22_47" style="mask-type:alpha" maskUnits="userSpaceOnUse" x="0" y="15" width="38" height="28">
<g clip-path="url(#clip0_22_47)">
<path d="M16.5503 24.5025L14.5366 26.5446L21.4324 33.5375L23.4461 31.4954L16.5503 24.5025Z" fill="#8D0101"/>
<path d="M10.3581 21.7614C10.5949 22.354 10.9516 22.9122 11.4222 23.3863L11.7543 23.7231L13.7687 21.6803L13.4366 21.3435C13.2397 21.1439 13.0952 20.9162 12.9968 20.6761C12.9014 20.436 12.8522 20.1802 12.8522 19.9214V19.912C12.8522 19.9089 12.8522 19.9058 12.8522 19.9027C12.8522 19.6469 12.9014 19.3912 12.9968 19.151C13.0952 18.9078 13.2367 18.6832 13.4366 18.4836C13.6334 18.284 13.8579 18.1374 14.0947 18.0376C14.3346 17.9378 14.5899 17.8879 14.8482 17.8879C15.1065 17.8879 15.3618 17.9378 15.6017 18.0345C15.8416 18.1343 16.063 18.2778 16.2598 18.4805L16.6688 18.8953L21.4296 23.7231L23.444 21.6803L18.6833 16.8525L18.2896 16.4533L18.2742 16.4377C17.8037 15.9606 17.2563 15.5988 16.6719 15.3587C16.0876 15.1185 15.4694 15 14.8482 15C14.23 15 13.6088 15.1185 13.0245 15.3587C12.4401 15.5988 11.8896 15.9606 11.4222 16.4377C10.9516 16.9149 10.5949 17.4732 10.3581 18.0626C10.1213 18.6552 10.0044 19.282 10.0044 19.912C10.0044 20.5389 10.1213 21.1689 10.3581 21.7614Z" fill="#8D0101"/>
<path d="M23.9422 26.0029L24.0191 25.9249C24.2436 25.6941 24.4589 25.4789 24.6557 25.2793C25.0924 24.8396 25.4492 24.481 25.7013 24.2377C25.7875 24.1535 25.8582 24.0849 25.9135 24.0319L25.9259 24.0194L25.9443 24.0131L25.9812 23.9975L26.5778 23.3925C27.0484 22.9153 27.4051 22.3571 27.6419 21.7677C27.8787 21.1751 27.9956 20.5482 27.9956 19.9182C27.9956 19.2914 27.8787 18.6614 27.6419 18.0688C27.4051 17.4763 27.0484 16.918 26.5778 16.444C26.1073 15.9668 25.5568 15.605 24.9755 15.3649C24.3912 15.1185 23.77 15 23.1518 15C22.5337 15 21.9124 15.1185 21.3281 15.3587C20.7438 15.5988 20.1932 15.9606 19.7258 16.4377L19.3936 16.7746L21.408 18.8173L21.7402 18.4805C21.937 18.2809 22.1615 18.1343 22.3983 18.0345C22.6382 17.9347 22.8935 17.8848 23.1518 17.8848C23.4101 17.8848 23.6654 17.9347 23.9053 18.0314C24.1452 18.1312 24.3666 18.2747 24.5634 18.4774C24.7603 18.677 24.9048 18.9047 25.0032 19.1479C25.1016 19.3912 25.1508 19.65 25.1508 19.912C25.1508 20.174 25.1016 20.4328 25.0063 20.6761C24.9079 20.9194 24.7664 21.1439 24.5665 21.3435L24.2282 21.6866H24.2251C24.1821 21.7271 24.1452 21.7583 24.1083 21.7895C24.0252 21.8643 23.936 21.9485 23.8253 22.0577C23.6316 22.2448 23.3825 22.4912 23.0811 22.7968C22.1923 23.6888 20.8483 25.0579 19.3352 26.6048L21.3588 28.6382L21.3927 28.6039L21.408 28.6195C21.7832 28.2359 22.4014 27.5997 22.9458 27.0383C23.3948 26.5767 23.7884 26.1682 23.9453 26.0029H23.9422Z" fill="#8D0101"/>
<path d="M26.5779 34.6106L26.2457 34.2738L24.2313 36.3166L24.5635 36.6534C24.7603 36.853 24.9048 37.0807 25.0032 37.3208C25.1017 37.5641 25.1509 37.8229 25.1509 38.0849C25.1509 38.3469 25.1017 38.6057 25.0063 38.849C24.9079 39.0922 24.7664 39.3168 24.5665 39.5164C24.3697 39.716 24.1452 39.8626 23.9084 39.9624C23.6685 40.0622 23.4132 40.1121 23.1549 40.1121C22.8966 40.1121 22.6413 40.0622 22.4014 39.9624C22.1615 39.8626 21.9401 39.7191 21.7433 39.5164L21.3343 39.1016L16.5735 34.2738L14.5591 36.3166L19.3198 41.1444L19.7289 41.5592C20.1994 42.0363 20.7468 42.3981 21.3312 42.6383C21.9155 42.8784 22.5337 42.9969 23.1549 42.9969C23.7731 42.9969 24.3943 42.8784 24.9786 42.6383C25.563 42.3981 26.1135 42.0363 26.5809 41.5592C27.0515 41.082 27.4082 40.5237 27.645 39.9343C27.8818 39.3417 27.9987 38.7149 27.9987 38.0849C27.9987 37.458 27.8818 36.828 27.645 36.2355C27.4082 35.6429 27.0515 35.0847 26.5809 34.6106H26.5779Z" fill="#8D0101"/>
<path d="M25.9914 29.6506L19.3804 36.3546L21.3942 38.3967L28.0051 31.6927L25.9914 29.6506Z" fill="#8D0101"/>
<path d="M18.6678 31.3952L16.6442 29.3618L16.6104 29.3961L16.595 29.3805C16.2198 29.7641 15.6016 30.4004 15.0573 30.9617C14.6052 31.4264 14.2115 31.835 14.0547 31.9971L13.9778 32.0751C13.7533 32.3059 13.538 32.5211 13.3412 32.7207C12.9045 33.1604 12.5477 33.5191 12.2956 33.7624C12.2094 33.8466 12.1387 33.9152 12.0833 33.9682L12.071 33.9807L12.0526 33.9869L12.0157 34.0025L11.4191 34.6075C10.9485 35.0847 10.5918 35.6398 10.355 36.2324C10.1181 36.8249 10.0013 37.4518 10.0013 38.0818C10.0013 38.7087 10.1181 39.3386 10.355 39.9312C10.5918 40.5238 10.9485 41.082 11.4191 41.5561C11.8896 42.0332 12.437 42.395 13.0214 42.6352C13.6057 42.8753 14.2238 42.9938 14.8451 42.9938C15.4632 42.9938 16.0845 42.8753 16.6688 42.6352C17.2531 42.395 17.8036 42.0332 18.2711 41.5561L18.6033 41.2192L16.5889 39.1765L16.2567 39.5133C16.0599 39.7129 15.8354 39.8595 15.5986 39.9593C15.3587 40.0591 15.1034 40.109 14.8451 40.109C14.5867 40.109 14.3315 40.0591 14.0916 39.9593C13.8517 39.8595 13.6303 39.716 13.4335 39.5133C13.2366 39.3137 13.0921 39.086 12.9937 38.8428C12.8983 38.6026 12.8491 38.3469 12.8491 38.088V38.0818C12.8491 38.0787 12.8491 38.0756 12.8491 38.0724C12.8491 37.8167 12.8983 37.561 12.9937 37.3208C13.0921 37.0776 13.2336 36.853 13.4335 36.6534L13.7718 36.3104H13.7748C13.8179 36.2698 13.8548 36.2386 13.8917 36.2074C13.9747 36.1326 14.0639 36.0484 14.1746 35.9392C14.3684 35.7521 14.6175 35.5057 14.9189 35.2001C15.8077 34.3081 17.1517 32.939 18.6648 31.3921L18.6678 31.3952Z" fill="#8D0101"/>
<path d="M37.6463 27.4437C37.4095 26.8511 37.0528 26.2929 36.5822 25.8188C36.1117 25.3417 35.5612 24.9799 34.9799 24.7398C34.3956 24.4996 33.7775 24.3811 33.1562 24.3811C32.5381 24.3811 31.9168 24.4996 31.3325 24.7398C30.7482 24.9799 30.1977 25.3417 29.7302 25.8188L29.3212 26.2336L28.7091 26.8543L30.7236 28.897L31.3356 28.2764L31.7446 27.8616C31.9414 27.662 32.1659 27.5154 32.4027 27.4156C32.6426 27.3158 32.8979 27.2691 33.1562 27.2659C33.4115 27.2659 33.6698 27.3158 33.9097 27.4156C34.1496 27.5154 34.371 27.6589 34.5678 27.8616C34.6663 27.9614 34.7524 28.0674 34.8262 28.1797C34.9 28.292 34.9584 28.4074 35.0076 28.529C35.0999 28.7598 35.146 29.0062 35.1522 29.2526V29.29C35.1522 29.552 35.103 29.8108 35.0076 30.0541C34.9092 30.2973 34.7677 30.5219 34.5678 30.7215C34.371 30.9211 34.1465 31.0677 33.9097 31.1675C33.6698 31.2673 33.4146 31.3141 33.1562 31.3141C32.8979 31.3141 32.6426 31.2642 32.4027 31.1644C32.1629 31.0646 31.9414 30.9211 31.7446 30.7184L31.4032 30.3722H31.4001L31.3848 30.3504C31.3386 30.2973 31.3017 30.2537 31.2556 30.2038C31.1695 30.1102 31.0649 29.9979 30.9358 29.8607C30.4806 29.3836 29.7271 28.6132 28.8229 27.6963C27.9434 26.8044 26.9223 25.7752 25.9197 24.7647L23.9146 26.8168C25.2155 28.1236 26.5379 29.4584 27.5466 30.4876C28.0602 31.0115 28.4939 31.4575 28.7983 31.7725C28.9244 31.9035 29.0259 32.0126 29.0997 32.0906L29.112 32.1031L29.1182 32.1218L29.1336 32.153L29.7302 32.758C30.2007 33.2352 30.7482 33.597 31.3325 33.8371C31.9168 34.0773 32.535 34.1958 33.1562 34.1958C33.7744 34.1958 34.3956 34.0773 34.9799 33.8371C35.5612 33.597 36.1117 33.2352 36.5792 32.7611L36.7698 32.5085V32.5522C37.0928 32.1873 37.3573 31.7819 37.5541 31.3546C37.5879 31.2829 37.6187 31.208 37.6494 31.1332C37.8862 30.5406 38.0031 29.9137 38.0031 29.2838C38.0031 28.6569 37.8862 28.0269 37.6494 27.4343L37.6463 27.4437Z" fill="#8D0101"/>
<path d="M6.2585 30.1415C6.06167 30.3411 5.83716 30.4876 5.59728 30.5874C5.3574 30.6872 5.10214 30.7371 4.8438 30.7371C4.58546 30.7371 4.3302 30.6872 4.09032 30.5874C3.85044 30.4876 3.62901 30.3442 3.43218 30.1415V30.1383C3.3922 30.0978 3.35837 30.0573 3.32761 30.0198C3.18614 29.8514 3.07543 29.6674 2.99854 29.4741C2.9032 29.2339 2.854 28.9782 2.854 28.7193V28.7131C2.854 28.4979 2.8909 28.2827 2.95549 28.08C2.96779 28.0394 2.98317 27.9958 3.00162 27.9521C3.02315 27.896 3.04775 27.843 3.07543 27.7899L3.08158 27.7743C3.17384 27.5966 3.29071 27.4313 3.43833 27.2816C3.63516 27.082 3.85966 26.9354 4.09647 26.8356C4.33635 26.7358 4.59162 26.6859 4.84995 26.6859C5.10829 26.6859 5.36355 26.7358 5.60343 26.8356C5.84331 26.9354 6.06475 27.0789 6.26157 27.2816L6.60295 27.6278H6.60602L6.6214 27.6496C6.66753 27.7026 6.70444 27.7463 6.75057 27.7962C6.83668 27.8897 6.94124 28.002 7.07041 28.1392C7.52557 28.6164 8.27905 29.3867 9.18323 30.3036C10.0628 31.1956 11.0838 32.2248 12.0864 33.2353L14.0916 31.1831C12.7907 29.8764 11.4683 28.5416 10.4595 27.5124C9.94594 26.9884 9.5123 26.5424 9.20783 26.2275C9.08174 26.0965 8.98025 25.9873 8.90644 25.9093L8.89414 25.8969L8.88799 25.8782L8.87261 25.847L8.27598 25.2419C7.80544 24.7648 7.25801 24.403 6.67368 24.1629C6.08935 23.9227 5.47119 23.8042 4.84995 23.8042C4.23179 23.8042 3.61055 23.9227 3.02622 24.1629C2.44189 24.403 1.89139 24.7648 1.42392 25.2419C1.34396 25.323 1.26708 25.4072 1.19327 25.4946C1.12253 25.5788 1.0518 25.6661 0.987213 25.7534C0.725801 26.1027 0.516672 26.477 0.359825 26.8699C0.116866 27.4531 0 28.08 0 28.71C0 29.3368 0.116866 29.9668 0.353674 30.5594C0.525898 30.9866 0.759631 31.3952 1.0518 31.7694C1.07332 31.7944 1.09178 31.8193 1.11331 31.8443C1.18096 31.9254 1.2517 32.0065 1.32551 32.0876C1.35934 32.1219 1.38702 32.1562 1.41777 32.1842C1.88831 32.6614 2.43574 33.0232 3.02007 33.2633C3.6044 33.5035 4.22256 33.622 4.8438 33.622C5.46196 33.622 6.0832 33.5035 6.66753 33.2633C7.25186 33.0232 7.80236 32.6614 8.26983 32.1842L8.67886 31.7694L9.29087 31.1488L7.27646 29.106L6.66445 29.7267L6.25542 30.1415H6.2585Z" fill="#8D0101"/>
<path d="M16.6071 19.6045L9.99615 26.3086L12.0099 28.3507L18.6208 21.6466L16.6071 19.6045Z" fill="#8D0101"/>
</g>
</mask>
<g mask="url(#mask0_22_47)">
<rect x="19" y="2" width="35" height="50" fill="#8D0101"/>
</g>
<mask id="mask1_22_47" style="mask-type:alpha" maskUnits="userSpaceOnUse" x="210" y="15" width="38" height="28">
<g clip-path="url(#clip1_22_47)">
<path d="M231.45 24.5025L233.463 26.5446L226.568 33.5375L224.554 31.4954L231.45 24.5025Z" fill="#8D0101"/>
<path d="M237.642 21.7614C237.405 22.354 237.048 22.9122 236.578 23.3863L236.246 23.7231L234.231 21.6803L234.563 21.3435C234.76 21.1439 234.905 20.9162 235.003 20.6761C235.099 20.436 235.148 20.1802 235.148 19.9214V19.912C235.148 19.9089 235.148 19.9058 235.148 19.9027C235.148 19.6469 235.099 19.3912 235.003 19.151C234.905 18.9078 234.763 18.6832 234.563 18.4836C234.367 18.284 234.142 18.1374 233.905 18.0376C233.665 17.9378 233.41 17.8879 233.152 17.8879C232.893 17.8879 232.638 17.9378 232.398 18.0345C232.158 18.1343 231.937 18.2778 231.74 18.4805L231.331 18.8953L226.57 23.7231L224.556 21.6803L229.317 16.8525L229.71 16.4533L229.726 16.4377C230.196 15.9606 230.744 15.5988 231.328 15.3587C231.912 15.1185 232.531 15 233.152 15C233.77 15 234.391 15.1185 234.976 15.3587C235.56 15.5988 236.11 15.9606 236.578 16.4377C237.048 16.9149 237.405 17.4732 237.642 18.0626C237.879 18.6552 237.996 19.282 237.996 19.912C237.996 20.5389 237.879 21.1689 237.642 21.7614Z" fill="#8D0101"/>
<path d="M224.058 26.0029L223.981 25.9249C223.756 25.6941 223.541 25.4789 223.344 25.2793C222.908 24.8396 222.551 24.481 222.299 24.2377C222.213 24.1535 222.142 24.0849 222.086 24.0319L222.074 24.0194L222.056 24.0131L222.019 23.9975L221.422 23.3925C220.952 22.9153 220.595 22.3571 220.358 21.7677C220.121 21.1751 220.004 20.5482 220.004 19.9182C220.004 19.2914 220.121 18.6614 220.358 18.0688C220.595 17.4763 220.952 16.918 221.422 16.444C221.893 15.9668 222.443 15.605 223.024 15.3649C223.609 15.1185 224.23 15 224.848 15C225.466 15 226.088 15.1185 226.672 15.3587C227.256 15.5988 227.807 15.9606 228.274 16.4377L228.606 16.7746L226.592 18.8173L226.26 18.4805C226.063 18.2809 225.838 18.1343 225.602 18.0345C225.362 17.9347 225.106 17.8848 224.848 17.8848C224.59 17.8848 224.335 17.9347 224.095 18.0314C223.855 18.1312 223.633 18.2747 223.437 18.4774C223.24 18.677 223.095 18.9047 222.997 19.1479C222.898 19.3912 222.849 19.65 222.849 19.912C222.849 20.174 222.898 20.4328 222.994 20.6761C223.092 20.9194 223.234 21.1439 223.433 21.3435L223.772 21.6866H223.775C223.818 21.7271 223.855 21.7583 223.892 21.7895C223.975 21.8643 224.064 21.9485 224.175 22.0577C224.368 22.2448 224.617 22.4912 224.919 22.7968C225.808 23.6888 227.152 25.0579 228.665 26.6048L226.641 28.6382L226.607 28.6039L226.592 28.6195C226.217 28.2359 225.599 27.5997 225.054 27.0383C224.605 26.5767 224.212 26.1682 224.055 26.0029H224.058Z" fill="#8D0101"/>
<path d="M221.422 34.6106L221.754 34.2738L223.769 36.3166L223.437 36.6534C223.24 36.853 223.095 37.0807 222.997 37.3208C222.898 37.5641 222.849 37.8229 222.849 38.0849C222.849 38.3469 222.898 38.6057 222.994 38.849C223.092 39.0922 223.234 39.3168 223.433 39.5164C223.63 39.716 223.855 39.8626 224.092 39.9624C224.331 40.0622 224.587 40.1121 224.845 40.1121C225.103 40.1121 225.359 40.0622 225.599 39.9624C225.838 39.8626 226.06 39.7191 226.257 39.5164L226.666 39.1016L231.427 34.2738L233.441 36.3166L228.68 41.1444L228.271 41.5592C227.801 42.0363 227.253 42.3981 226.669 42.6383C226.084 42.8784 225.466 42.9969 224.845 42.9969C224.227 42.9969 223.606 42.8784 223.021 42.6383C222.437 42.3981 221.887 42.0363 221.419 41.5592C220.949 41.082 220.592 40.5237 220.355 39.9343C220.118 39.3417 220.001 38.7149 220.001 38.0849C220.001 37.458 220.118 36.828 220.355 36.2355C220.592 35.6429 220.949 35.0847 221.419 34.6106H221.422Z" fill="#8D0101"/>
<path d="M222.009 29.6506L228.62 36.3546L226.606 38.3967L219.995 31.6927L222.009 29.6506Z" fill="#8D0101"/>
<path d="M229.332 31.3952L231.356 29.3618L231.39 29.3961L231.405 29.3805C231.78 29.7641 232.398 30.4004 232.943 30.9617C233.395 31.4264 233.788 31.835 233.945 31.9971L234.022 32.0751C234.247 32.3059 234.462 32.5211 234.659 32.7207C235.096 33.1604 235.452 33.5191 235.704 33.7624C235.791 33.8466 235.861 33.9152 235.917 33.9682L235.929 33.9807L235.947 33.9869L235.984 34.0025L236.581 34.6075C237.051 35.0847 237.408 35.6398 237.645 36.2324C237.882 36.8249 237.999 37.4518 237.999 38.0818C237.999 38.7087 237.882 39.3386 237.645 39.9312C237.408 40.5238 237.051 41.082 236.581 41.5561C236.11 42.0332 235.563 42.395 234.979 42.6352C234.394 42.8753 233.776 42.9938 233.155 42.9938C232.537 42.9938 231.916 42.8753 231.331 42.6352C230.747 42.395 230.196 42.0332 229.729 41.5561L229.397 41.2192L231.411 39.1765L231.743 39.5133C231.94 39.7129 232.165 39.8595 232.401 39.9593C232.641 40.0591 232.897 40.109 233.155 40.109C233.413 40.109 233.669 40.0591 233.908 39.9593C234.148 39.8595 234.37 39.716 234.567 39.5133C234.763 39.3137 234.908 39.086 235.006 38.8428C235.102 38.6026 235.151 38.3469 235.151 38.088V38.0818C235.151 38.0787 235.151 38.0756 235.151 38.0724C235.151 37.8167 235.102 37.561 235.006 37.3208C234.908 37.0776 234.766 36.853 234.567 36.6534L234.228 36.3104H234.225C234.182 36.2698 234.145 36.2386 234.108 36.2074C234.025 36.1326 233.936 36.0484 233.825 35.9392C233.632 35.7521 233.382 35.5057 233.081 35.2001C232.192 34.3081 230.848 32.939 229.335 31.3921L229.332 31.3952Z" fill="#8D0101"/>
<path d="M210.354 27.4437C210.59 26.8511 210.947 26.2929 211.418 25.8188C211.888 25.3417 212.439 24.9799 213.02 24.7398C213.604 24.4996 214.223 24.3811 214.844 24.3811C215.462 24.3811 216.083 24.4996 216.668 24.7398C217.252 24.9799 217.802 25.3417 218.27 25.8188L218.679 26.2336L219.291 26.8543L217.276 28.897L216.664 28.2764L216.255 27.8616C216.059 27.662 215.834 27.5154 215.597 27.4156C215.357 27.3158 215.102 27.2691 214.844 27.2659C214.589 27.2659 214.33 27.3158 214.09 27.4156C213.85 27.5154 213.629 27.6589 213.432 27.8616C213.334 27.9614 213.248 28.0674 213.174 28.1797C213.1 28.292 213.042 28.4074 212.992 28.529C212.9 28.7598 212.854 29.0062 212.848 29.2526V29.29C212.848 29.552 212.897 29.8108 212.992 30.0541C213.091 30.2973 213.232 30.5219 213.432 30.7215C213.629 30.9211 213.853 31.0677 214.09 31.1675C214.33 31.2673 214.585 31.3141 214.844 31.3141C215.102 31.3141 215.357 31.2642 215.597 31.1644C215.837 31.0646 216.059 30.9211 216.255 30.7184L216.597 30.3722H216.6L216.615 30.3504C216.661 30.2973 216.698 30.2537 216.744 30.2038C216.831 30.1102 216.935 29.9979 217.064 29.8607C217.519 29.3836 218.273 28.6132 219.177 27.6963C220.057 26.8044 221.078 25.7752 222.08 24.7647L224.085 26.8168C222.785 28.1236 221.462 29.4584 220.453 30.4876C219.94 31.0115 219.506 31.4575 219.202 31.7725C219.076 31.9035 218.974 32.0126 218.9 32.0906L218.888 32.1031L218.882 32.1218L218.866 32.153L218.27 32.758C217.799 33.2352 217.252 33.597 216.668 33.8371C216.083 34.0773 215.465 34.1958 214.844 34.1958C214.226 34.1958 213.604 34.0773 213.02 33.8371C212.439 33.597 211.888 33.2352 211.421 32.7611L211.23 32.5085V32.5522C210.907 32.1873 210.643 31.7819 210.446 31.3546C210.412 31.2829 210.381 31.208 210.351 31.1332C210.114 30.5406 209.997 29.9137 209.997 29.2838C209.997 28.6569 210.114 28.0269 210.351 27.4343L210.354 27.4437Z" fill="#8D0101"/>
<path d="M241.742 30.1415C241.938 30.3411 242.163 30.4876 242.403 30.5874C242.643 30.6872 242.898 30.7371 243.156 30.7371C243.415 30.7371 243.67 30.6872 243.91 30.5874C244.15 30.4876 244.371 30.3442 244.568 30.1415V30.1383C244.608 30.0978 244.642 30.0573 244.672 30.0198C244.814 29.8514 244.925 29.6674 245.001 29.4741C245.097 29.2339 245.146 28.9782 245.146 28.7193V28.7131C245.146 28.4979 245.109 28.2827 245.045 28.08C245.032 28.0394 245.017 27.9958 244.998 27.9521C244.977 27.896 244.952 27.843 244.925 27.7899L244.918 27.7743C244.826 27.5966 244.709 27.4313 244.562 27.2816C244.365 27.082 244.14 26.9354 243.904 26.8356C243.664 26.7358 243.408 26.6859 243.15 26.6859C242.892 26.6859 242.636 26.7358 242.397 26.8356C242.157 26.9354 241.935 27.0789 241.738 27.2816L241.397 27.6278H241.394L241.379 27.6496C241.332 27.7026 241.296 27.7463 241.249 27.7962C241.163 27.8897 241.059 28.002 240.93 28.1392C240.474 28.6164 239.721 29.3867 238.817 30.3036C237.937 31.1956 236.916 32.2248 235.914 33.2353L233.908 31.1831C235.209 29.8764 236.532 28.5416 237.54 27.5124C238.054 26.9884 238.488 26.5424 238.792 26.2275C238.918 26.0965 239.02 25.9873 239.094 25.9093L239.106 25.8969L239.112 25.8782L239.127 25.847L239.724 25.2419C240.195 24.7648 240.742 24.403 241.326 24.1629C241.911 23.9227 242.529 23.8042 243.15 23.8042C243.768 23.8042 244.389 23.9227 244.974 24.1629C245.558 24.403 246.109 24.7648 246.576 25.2419C246.656 25.323 246.733 25.4072 246.807 25.4946C246.877 25.5788 246.948 25.6661 247.013 25.7534C247.274 26.1027 247.483 26.477 247.64 26.8699C247.883 27.4531 248 28.08 248 28.71C248 29.3368 247.883 29.9668 247.646 30.5594C247.474 30.9866 247.24 31.3952 246.948 31.7694C246.927 31.7944 246.908 31.8193 246.887 31.8443C246.819 31.9254 246.748 32.0065 246.674 32.0876C246.641 32.1219 246.613 32.1562 246.582 32.1842C246.112 32.6614 245.564 33.0232 244.98 33.2633C244.396 33.5035 243.777 33.622 243.156 33.622C242.538 33.622 241.917 33.5035 241.332 33.2633C240.748 33.0232 240.198 32.6614 239.73 32.1842L239.321 31.7694L238.709 31.1488L240.724 29.106L241.336 29.7267L241.745 30.1415H241.742Z" fill="#8D0101"/>
<path d="M231.393 19.6045L238.004 26.3086L235.99 28.3507L229.379 21.6466L231.393 19.6045Z" fill="#8D0101"/>
</g>
</mask>
<g mask="url(#mask1_22_47)">
<rect width="35" height="50" transform="matrix(-1 0 0 1 229 2)" fill="#8D0101"/>
</g>
<defs>
<clipPath id="clip0_22_47">
<rect width="38" height="28" fill="white" transform="translate(0 15)"/>
</clipPath>
<clipPath id="clip1_22_47">
<rect width="38" height="28" fill="white" transform="matrix(-1 0 0 1 248 15)"/>
</clipPath>
</defs>
</svg>
